<?xml version="1.0" encoding="UTF-8"?>
<svg id="Layer_1" data-name="Layer 1" xmlns="http://www.w3.org/2000/svg" viewBox="0 0 350.96 350.97">
  <defs>
    <style>
      .cls-1 {
        fill: #231f20;
      }

      .cls-2 {
        fill: #717ebd;
      }
    </style>
  </defs>
  <path class="cls-2" d="M21.27,350.04c-12.24-3.17-21.27-14.31-21.27-27.53v-175.01l21.27,202.53Z"/>
  <path class="cls-2" d="M350.96,28.45v197.07l-102.19-7.17L350.75,25.06c.14,1.12.22,2.24.22,3.39Z"/>
  <path class="cls-1" d="M76.34,20.47L6.78,10.02C11.99,3.9,19.76,0,28.44,0h294.07c13.66,0,25.04,9.58,27.81,22.42l-134.18,46.07-15.56,33.66-8.22-18.34-24.09-18.52L76.34,20.47Z"/>
  <path class="cls-1" d="M350.96,311.05v11.47c0,15.7-12.72,28.45-28.45,28.45H56.31l37.88-20.18,60-50.4,14.61-1.17,182.16,31.83Z"/>
  <polygon class="cls-1" points="58.14 97.9 71.59 221.01 89.23 202.64 106.35 131 58.14 97.9"/>
  <polygon class="cls-1" points="146.31 300.35 188.85 169.69 172.14 305.66 146.31 300.35"/>
</svg>