<?xml version="1.0" encoding="UTF-8"?>
<svg id="Layer_1" data-name="Layer 1" xmlns="http://www.w3.org/2000/svg" viewBox="0 0 455.07 455.08">
  <defs>
    <style>
      .cls-1 {
        fill: #231f20;
      }
    </style>
  </defs>
  <path class="cls-1" d="M27.58,453.88c-15.87-4.11-27.58-18.56-27.58-35.7v-226.92l27.58,262.61Z"/>
  <path class="cls-1" d="M455.07,36.89v255.53l-132.5-9.3L454.79,32.49c.19,1.45.28,2.9.28,4.39Z"/>
  <path class="cls-1" d="M98.99,26.54L8.79,12.99C15.54,5.06,25.62,0,36.88,0h381.3c17.71,0,32.47,12.42,36.06,29.07l-173.98,59.73-20.18,43.65-10.66-23.79-31.23-24.01L98.99,26.54Z"/>
  <path class="cls-1" d="M455.07,403.31v14.88c0,20.35-16.5,36.89-36.89,36.89H73.01l49.12-26.17,77.8-65.36,18.94-1.51,236.2,41.27Z"/>
  <polygon class="cls-1" points="75.38 126.94 92.83 286.57 115.69 262.75 137.89 169.85 75.38 126.94"/>
  <polygon class="cls-1" points="189.71 389.44 244.86 220.03 223.2 396.33 189.71 389.44"/>
</svg>