<?xml version="1.0" encoding="UTF-8"?>
<svg id="Layer_1" data-name="Layer 1" xmlns="http://www.w3.org/2000/svg" viewBox="0 0 443.91 120.53">
  <defs>
    <style>
      .cls-1 {
        fill: #231f20;
      }

      .cls-2 {
        fill: #717ebd;
      }
    </style>
  </defs>
  <g>
    <path class="cls-1" d="M152.77,11.11c16.17.91,29.04,14.36,29.04,30.77s-12.62,29.12-29.04,30.03h-13.94V11.03h13.94v.08ZM152.77,57.89c8.58-.91,15.1-7.59,15.1-16.01s-6.6-15.92-15.1-16.83v32.84Z"/>
    <path class="cls-1" d="M219.68,71.92l-2.39-7.34h-19.06l-2.48,7.34h-14.77l20.63-60.56h13.2l19.55,60.56h-14.69ZM203.01,50.63h9.82l-4.79-14.69-5.03,14.69Z"/>
    <path class="cls-1" d="M261.84,10.87h14.77l-20.63,61.05h-13.2l-19.55-61.05h14.69l11.63,37.46,12.29-37.46Z"/>
    <path class="cls-1" d="M291.04,71.92h-13.94V11.28h13.94v60.64Z"/>
    <path class="cls-1" d="M313.23,11.11c16.17.91,29.04,14.36,29.04,30.77s-12.62,29.12-29.04,30.03h-13.94V11.03h13.94v.08ZM313.23,57.89c8.58-.91,15.1-7.59,15.1-16.01s-6.6-15.92-15.1-16.83v32.84Z"/>
    <path class="cls-1" d="M400.68,71.92h-36.05V11.28h13.94v46.7h22.11v13.94Z"/>
    <path class="cls-1" d="M443.91,25.3h-24.92v9.16h20.21v13.94h-20.21v9.57h24.92v13.94h-38.86V11.44l38.86-.08v13.94Z"/>
  </g>
  <g>
    <path class="cls-2" d="M143.76,112.07v-24.42h5.06c3.65,0,6.3.29,7.95.88,2.37.83,4.22,2.27,5.55,4.32,1.33,2.05,2,4.49,2,7.32,0,2.45-.53,4.6-1.59,6.46-1.06,1.86-2.43,3.23-4.12,4.12-1.69.89-4.05,1.33-7.1,1.33h-7.77ZM146.11,109.76h2.82c3.38,0,5.72-.21,7.02-.63,1.84-.6,3.28-1.67,4.33-3.23s1.58-3.45,1.58-5.7-.57-4.37-1.71-6.04-2.73-2.81-4.76-3.43c-1.53-.46-4.04-.7-7.55-.7h-1.73v19.72Z"/>
    <path class="cls-2" d="M169.08,87.65h14v2.39h-11.55v7.65h11.46v2.39h-11.46v9.6h11.46v2.39h-13.9v-24.42Z"/>
    <path class="cls-2" d="M184.77,107.52l2.08-1.25c1.46,2.69,3.15,4.03,5.06,4.03.82,0,1.59-.19,2.31-.57s1.27-.89,1.64-1.54c.38-.64.56-1.32.56-2.04,0-.82-.28-1.62-.83-2.41-.76-1.08-2.16-2.39-4.18-3.92-2.04-1.54-3.3-2.65-3.8-3.34-.86-1.15-1.29-2.4-1.29-3.74,0-1.06.25-2.03.76-2.91.51-.87,1.23-1.56,2.15-2.07.92-.5,1.93-.76,3.01-.76,1.15,0,2.23.29,3.23.86,1,.57,2.06,1.62,3.18,3.15l-1.99,1.51c-.92-1.22-1.7-2.02-2.35-2.41-.65-.39-1.35-.58-2.12-.58-.99,0-1.79.3-2.42.9-.62.6-.94,1.33-.94,2.21,0,.53.11,1.05.33,1.54s.62,1.04,1.21,1.63c.32.31,1.37,1.12,3.15,2.44,2.11,1.56,3.56,2.95,4.35,4.17.79,1.22,1.18,2.44,1.18,3.67,0,1.77-.67,3.31-2.02,4.62-1.34,1.31-2.98,1.96-4.91,1.96-1.48,0-2.83-.4-4.03-1.19s-2.32-2.12-3.34-3.98Z"/>
    <path class="cls-2" d="M203.88,87.65h2.44v24.42h-2.44v-24.42Z"/>
    <path class="cls-2" d="M235.47,91.75l-1.89,1.79c-1.36-1.34-2.85-2.35-4.47-3.05-1.62-.69-3.2-1.04-4.74-1.04-1.92,0-3.74.47-5.47,1.41-1.73.94-3.07,2.22-4.03,3.83s-1.43,3.31-1.43,5.1.49,3.58,1.48,5.24,2.35,2.96,4.08,3.9,3.64,1.42,5.71,1.42c2.51,0,4.64-.71,6.38-2.12,1.74-1.42,2.77-3.25,3.09-5.51h-7.79v-2.36h10.53c-.02,3.77-1.14,6.77-3.36,8.99-2.22,2.22-5.19,3.33-8.91,3.33-4.52,0-8.09-1.54-10.73-4.62-2.03-2.37-3.04-5.11-3.04-8.22,0-2.31.58-4.47,1.74-6.46s2.76-3.55,4.78-4.67,4.32-1.69,6.87-1.69c2.07,0,4.02.37,5.84,1.12s3.61,1.95,5.35,3.59Z"/>
    <path class="cls-2" d="M241.58,112.07v-24.42h.53l16.25,18.72v-18.72h2.41v24.42h-.55l-16.12-18.49v18.49h-2.52Z"/>
    <path class="cls-2" d="M264.19,107.52l2.08-1.25c1.46,2.69,3.15,4.03,5.06,4.03.82,0,1.59-.19,2.31-.57s1.27-.89,1.64-1.54c.38-.64.56-1.32.56-2.04,0-.82-.28-1.62-.83-2.41-.76-1.08-2.16-2.39-4.18-3.92-2.04-1.54-3.3-2.65-3.8-3.34-.86-1.15-1.29-2.4-1.29-3.74,0-1.06.25-2.03.76-2.91.51-.87,1.23-1.56,2.15-2.07.92-.5,1.93-.76,3.01-.76,1.15,0,2.23.29,3.23.86,1,.57,2.06,1.62,3.18,3.15l-1.99,1.51c-.92-1.22-1.7-2.02-2.35-2.41-.65-.39-1.35-.58-2.12-.58-.99,0-1.79.3-2.42.9-.62.6-.94,1.33-.94,2.21,0,.53.11,1.05.33,1.54s.62,1.04,1.21,1.63c.32.31,1.37,1.12,3.15,2.44,2.11,1.56,3.56,2.95,4.35,4.17.79,1.22,1.18,2.44,1.18,3.67,0,1.77-.67,3.31-2.02,4.62-1.34,1.31-2.98,1.96-4.91,1.96-1.48,0-2.83-.4-4.03-1.19s-2.32-2.12-3.34-3.98Z"/>
  </g>
  <path class="cls-2" d="M7.31,120.21c-4.2-1.09-7.31-4.92-7.31-9.45v-60.1l7.31,69.55Z"/>
  <path class="cls-2" d="M120.53,9.77v67.68l-35.09-2.46L120.45,8.61c.05.38.07.77.07,1.16Z"/>
  <path class="cls-1" d="M26.22,7.03L2.33,3.44C4.12,1.34,6.79,0,9.77,0h100.99c4.69,0,8.6,3.29,9.55,7.7l-46.08,15.82-5.34,11.56-2.82-6.3-8.27-6.36L26.22,7.03Z"/>
  <path class="cls-1" d="M120.53,106.82v3.94c0,5.39-4.37,9.77-9.77,9.77H19.34l13.01-6.93,20.6-17.31,5.02-.4,62.56,10.93Z"/>
  <polygon class="cls-1" points="19.97 33.62 24.59 75.9 30.64 69.59 36.52 44.99 19.97 33.62"/>
  <polygon class="cls-1" points="50.25 103.14 64.85 58.28 59.11 104.97 50.25 103.14"/>
</svg>